# xmcd CD database file
#
# Track frame offsets:
#	150
#	10817
#	30397
#	73920
#	108220
#	131962
#	142302
#	165222
#	175050
#	214287
#	244470
#	286930
#
# Disc length: 4127 seconds
#
# Revision: 0
# Processed by: cddbd v1.5PL3 Copyright (c) Steve Scherf et al.
# Submitted via: CDex 1.51
#
DISCID=b1101d0c
DTITLE=Kawashima Tetsuro - Mambo Montage
DYEAR=2003
DGENRE=Jazz
TTITLE0=Introduction "Wisher"
TTITLE1=Wisher
TTITLE2=Horizon
TTITLE3=Night Fall
TTITLE4=El Dorado
TTITLE5=Horizontal Line To Be Vinished Into ...
TTITLE6=Largo
TTITLE7=Montage"Wisher"
TTITLE8=Marine Snow
TTITLE9=Awakening
TTITLE10=Atlantis
TTITLE11=Solo "Wisher"
EXTD=YEAR: 2003
EXTT0=
EXTT1=
EXTT2=
EXTT3=
EXTT4=
EXTT5=
EXTT6=
EXTT7=
EXTT8=
EXTT9=
EXTT10=
EXTT11=
PLAYORDER=
